<svg width="450" height="476" viewBox="0 0 450 476" fill="none" xmlns="http://www.w3.org/2000/svg">
<g filter="url(#filter0_d_405_644)">
<path fill-rule="evenodd" clip-rule="evenodd" d="M112.588 114.423C50.6645 177.382 0 228.937 0 228.992C0 229.047 6.78151 236.01 15.0701 244.466C24.2832 253.865 30.1103 259.922 30.0633 260.049C30.0191 260.169 30.3836 260.642 30.9189 261.16C31.4319 261.656 32.291 262.517 32.8281 263.074C33.3652 263.63 33.9928 264.158 34.2228 264.247C34.5261 264.365 187.248 419.896 219.776 453.213C222.172 455.667 223.254 456.67 223.698 456.848C224.255 457.07 224.75 457.367 225.469 457.907C225.679 458.064 225.84 458.033 226.371 457.73C227.243 457.231 227.526 456.958 227.844 456.311C228.182 455.621 229.567 454.254 230.201 453.985C230.511 453.853 230.697 453.655 230.727 453.424C230.757 453.19 235.73 448.001 245.196 438.326C253.129 430.218 263.152 419.964 267.47 415.54C274.251 408.592 275.352 407.525 275.554 407.699C275.754 407.872 275.883 407.788 276.448 407.116C276.811 406.684 277.441 406.066 277.849 405.743C278.256 405.419 278.73 404.894 278.902 404.576C279.233 403.963 280.756 402.377 281.013 402.377C281.096 402.377 281.56 402.033 282.045 401.614C282.529 401.194 283.192 400.698 283.518 400.512C283.957 400.26 284.013 400.192 283.734 400.248C283.527 400.289 283.088 400.368 282.757 400.424L282.156 400.525L283.731 398.91C284.598 398.022 322.174 359.599 367.235 313.524C428.534 250.845 449.142 229.685 449.08 229.483C449.03 229.317 449.143 229.072 449.375 228.845C449.788 228.441 449.855 228.218 449.564 228.218C448.997 228.218 447.516 227.257 446.822 226.438C445.141 224.456 444.194 223.606 443.666 223.606C443.455 223.606 418.456 198.073 365.46 143.729C322.618 99.7971 286.891 63.1665 286.067 62.3282C284.58 60.8149 284.572 60.8017 284.852 60.4795C285.177 60.1057 285.195 60.1373 284.41 59.7194C284.079 59.5437 283.403 58.9665 282.907 58.437C282.412 57.9075 281.668 57.3003 281.255 57.0875C280.764 56.8347 279.956 56.1123 278.926 55.0048C277.029 52.9656 225.439 0.0655141 225.284 9.33891e-06C225.224 -0.0253171 174.511 51.4652 112.588 114.423ZM248.275 37.508C259.266 48.7828 268.259 58.0552 268.259 58.1134C268.259 58.2253 215.976 76.3223 215.91 76.2334C215.828 76.1227 228.074 17.0083 228.18 17.0083C228.241 17.0083 237.284 26.2332 248.275 37.508ZM211.341 50.9369L205.374 79.9335L171.048 91.8527L136.721 103.772L139.651 100.818C141.262 99.1933 159.381 80.7726 179.916 59.8831C200.45 38.9937 217.264 21.9108 217.28 21.9213C217.296 21.9318 214.623 34.9888 211.341 50.9369ZM300.598 47.0634C300.33 47.153 300.11 47.3176 300.11 47.4291C300.11 47.8201 300.367 47.7893 300.874 47.3373C301.421 46.8511 301.374 46.8045 300.598 47.0634ZM299.333 89.8609L315.407 106.354L293.636 106.394C281.662 106.416 262.059 106.416 250.074 106.394L228.283 106.354L252.588 86.6399L276.894 66.9254L280.076 70.1464C281.826 71.918 290.491 80.7895 299.333 89.8609ZM190.63 96.7081C189.706 97.6283 154.798 133.135 113.058 175.611C71.3171 218.088 37.1147 252.841 37.0522 252.841C36.9174 252.841 13.6721 229.14 13.6721 229.003C13.6721 228.951 37.8535 204.323 67.4087 174.275L121.145 119.643L156.578 107.344C176.066 100.579 192.078 95.0425 192.161 95.0398C192.243 95.0371 191.555 95.7879 190.63 96.7081ZM317.809 116.79C317.691 116.983 293.434 158 263.904 207.938C234.374 257.876 210.16 298.715 210.095 298.691C210.03 298.667 200.748 289.185 189.469 277.62L168.963 256.593L168.955 210.151L168.948 163.708L192.548 140.073L216.148 116.438H267.086H318.024L317.809 116.79ZM323.403 194.215C322.815 231.189 322.298 262.004 322.254 262.695L322.175 263.95L313.358 266.872C303.849 270.023 223.155 296.089 223.099 296.027C223.08 296.007 245.859 257.442 273.72 210.328L324.374 124.665L324.423 125.828C324.45 126.468 323.991 157.242 323.403 194.215ZM389.333 182.176C425.5 219.264 433.039 227.066 432.813 227.171C432.352 227.385 331.897 260.721 331.853 260.675C331.785 260.605 333.918 128.211 334.01 126.791L334.093 125.496L339.836 131.402C342.994 134.651 365.268 157.499 389.333 182.176ZM124.49 254.485C145.132 275.416 162.001 292.562 161.976 292.588C161.945 292.62 47.2963 257.901 46.328 257.565C46.18 257.514 86.6708 216.345 86.8248 216.391C86.8988 216.412 103.848 233.555 124.49 254.485ZM113.659 288.322C146.175 298.186 172.853 306.338 172.943 306.438C173.074 306.584 186.009 345.614 214.426 431.611L215.537 434.973L212.713 432.062C211.16 430.462 176.118 394.732 134.843 352.662C57.8833 274.223 53.9261 270.176 54.3128 270.31C54.4368 270.353 81.1424 278.459 113.659 288.322ZM359.229 307.78C343.656 323.787 275.376 393.459 275.293 393.429C275.228 393.406 264.112 382.17 250.591 368.46L226.007 343.532L227.038 343.245C232.114 341.832 359.868 306.871 359.98 306.864C360.062 306.859 359.724 307.271 359.229 307.78ZM228.049 359.504C250.205 381.968 268.334 400.429 268.334 400.527C268.334 400.626 259.241 410.006 248.127 421.372L227.92 442.037L227.302 440.068C226.962 438.985 217.75 411.1 206.831 378.1C195.911 345.101 186.977 318.056 186.977 318.001C186.977 317.854 184.696 315.548 228.049 359.504ZM287.762 399.669C287.87 399.714 288 399.709 288.05 399.657C288.1 399.605 288.011 399.568 287.853 399.575C287.678 399.582 287.642 399.619 287.762 399.669ZM251.195 438.356C250.862 438.725 250.831 438.803 251.068 438.675C251.431 438.48 251.807 438.047 251.705 437.941C251.666 437.901 251.437 438.087 251.195 438.356Z" fill="white"/>
</g>
<defs>
<filter id="filter0_d_405_644" x="0" y="0" width="449.742" height="476" filterUnits="userSpaceOnUse" color-interpolation-filters="sRGB">
<feFlood flood-opacity="0" result="BackgroundImageFix"/>
<feColorMatrix in="SourceAlpha" type="matrix" values="0 0 0 0 0 0 0 0 0 0 0 0 0 0 0 0 0 0 127 0" result="hardAlpha"/>
<feOffset dy="18"/>
<feComposite in2="hardAlpha" operator="out"/>
<feColorMatrix type="matrix" values="0 0 0 0 0.172549 0 0 0 0 0.262745 0 0 0 0 0.309804 0 0 0 1 0"/>
<feBlend mode="normal" in2="BackgroundImageFix" result="effect1_dropShadow_405_644"/>
<feBlend mode="normal" in="SourceGraphic" in2="effect1_dropShadow_405_644" result="shape"/>
</filter>
</defs>
</svg>
